# xmcd database file
#
# Track frame offsets:
# 150
# 11633
# 23474
# 33448
# 44662
# 55907
# 68482
# 79552
# 90554
# 103165
# 113213
# 124431
# 136369
# 148174
# 159275
# 172007
# 181983
#
# Disc length: 2589 seconds
#
# Revision: 0
# Processed by: cddbd v1.5.2PL0 Copyright (c) Steve Scherf et al.
# Submitted via: CD-Runner 2006.50
#
DISCID=e30a1b11
DTITLE=Kitty Wells - The Collection
DYEAR=1900
DGENRE=Country
TTITLE0=It Wasn't God Who Made Honky Tonk Angels
TTITLE1=Paying For That Back Street Affair
TTITLE2=Release Me
TTITLE3=Thou Shalt Not Steal
TTITLE4=Make Believe ('Til We Can Make It Come True (With Red Foley)
TTITLE5=Making Believe
TTITLE6=I've Kissed You My Last Time
TTITLE7=Searching (For Someone Like You)
TTITLE8=I'll Always Be Your Fraulen
TTITLE9=I Can't Stop Loving You
TTITLE10=Mommy For A Day
TTITLE11=Amigo's Guitar
TTITLE12=Heartbreak U.S.A.
TTITLE13=Will Your Lawyer Talk To God?
TTITLE14=This White Circle On My Finger
TTITLE15=Finally (With Webb Pierce)
TTITLE16=A Woman Half My Age
EXTD=
EXTT0=
EXTT1=
EXTT2=
EXTT3=
EXTT4=
EXTT5=
EXTT6=
EXTT7=
EXTT8=
EXTT9=
EXTT10=
EXTT11=
EXTT12=
EXTT13=
EXTT14=
EXTT15=
EXTT16=
PLAYORDER=
